<?xml version="1.0" standalone="no"?>
<!DOCTYPE svg PUBLIC "-//W3C//DTD SVG 20010904//EN"
 "http://www.w3.org/TR/2001/REC-SVG-20010904/DTD/svg10.dtd">
<svg version="1.0" xmlns="http://www.w3.org/2000/svg"
 width="512.000000pt" height="512.000000pt" viewBox="0 0 512.000000 512.000000"
 preserveAspectRatio="xMidYMid meet">

<g transform="translate(0.000000,512.000000) scale(0.100000,-0.100000)"
fill="#000000" stroke="none">
<path d="M1780 5094 c-25 -2 -99 -9 -165 -14 -532 -46 -1046 -197 -1287 -379
-120 -91 -187 -188 -208 -300 -13 -72 -14 -3173 0 -3255 29 -175 187 -329 461
-448 452 -194 1207 -295 1854 -247 l144 10 89 -78 c378 -334 859 -444 1337
-308 121 34 331 140 436 219 104 79 246 225 316 328 248 360 313 822 173 1239
-123 366 -410 680 -767 835 l-78 33 -5 858 -5 858 -27 55 c-137 279 -660 492
-1408 576 -137 15 -746 28 -860 18z m696 -224 c474 -37 861 -127 1124 -261
342 -175 345 -346 10 -522 -225 -119 -565 -207 -983 -254 -194 -22 -827 -25
-1012 -5 -451 49 -784 133 -1023 257 -342 177 -340 345 8 524 252 130 651 224
1105 260 148 12 623 12 771 1z m-2090 -921 c65 -44 232 -121 354 -164 701
-242 1803 -261 2575 -45 198 56 370 128 493 206 l52 34 0 -595 0 -595 -47 8
c-82 12 -382 8 -458 -7 -311 -60 -611 -234 -803 -464 -73 -87 -56 -82 -312
-92 -269 -11 -680 17 -960 65 -497 85 -893 269 -939 436 -11 41 -16 1244 -5
1244 3 0 26 -14 50 -31z m3425 -1374 c302 -53 598 -243 769 -494 150 -222 226
-516 200 -772 -19 -196 -94 -402 -200 -560 -176 -258 -489 -454 -798 -499
-129 -19 -345 -8 -465 23 -525 138 -887 604 -887 1142 0 316 120 605 345 830
227 228 502 343 821 344 74 1 168 -5 215 -14z m-3409 -209 c336 -214 980 -348
1689 -350 l257 -1 -18 -35 c-29 -56 -78 -211 -97 -307 -13 -66 -18 -133 -17
-268 0 -158 4 -194 26 -291 30 -127 70 -232 134 -353 24 -46 42 -87 38 -90
-11 -12 -658 -6 -784 7 -431 44 -772 127 -1015 248 -141 69 -224 135 -259 205
l-26 53 0 608 c0 391 4 608 10 608 5 0 33 -15 62 -34z"/>
<path d="M3315 2301 c-11 -5 -31 -21 -45 -36 l-25 -27 -3 -244 -3 -244 -110 0
c-126 0 -170 -13 -193 -59 -21 -40 -20 -92 4 -185 29 -114 73 -189 166 -282
69 -70 96 -89 185 -132 57 -28 132 -57 167 -63 73 -15 75 -21 33 -95 -60 -104
-169 -175 -293 -189 -104 -12 -138 -41 -138 -114 0 -31 7 -49 29 -73 29 -32
32 -33 104 -32 242 4 471 184 541 425 l17 56 87 21 c48 12 130 43 182 68 175
87 308 252 345 429 19 90 19 119 -1 160 -24 52 -64 65 -193 65 l-111 0 0 218
c0 119 -5 233 -10 253 -15 54 -53 84 -107 84 -38 0 -49 -5 -74 -33 l-29 -32 0
-245 0 -245 -190 0 -190 0 0 245 0 245 -27 30 c-30 33 -82 47 -118 31z m825
-778 c0 -24 -66 -117 -115 -161 -99 -90 -225 -136 -375 -136 -150 0 -276 46
-375 136 -49 44 -115 137 -115 161 0 4 221 7 490 7 270 0 490 -3 490 -7z"/>
</g>
</svg>
